<?xml version="1.0" standalone="no"?>
<!DOCTYPE svg PUBLIC "-//W3C//DTD SVG 20010904//EN"
 "http://www.w3.org/TR/2001/REC-SVG-20010904/DTD/svg10.dtd">
<svg version="1.0" xmlns="http://www.w3.org/2000/svg"
 width="213.000000pt" height="256.000000pt" viewBox="0 0 213.000000 256.000000"
 preserveAspectRatio="xMidYMid meet">
<metadata>
Created by potrace 1.16, written by Peter Selinger 2001-2019
</metadata>
<g transform="translate(0.000000,256.000000) scale(0.100000,-0.100000)"
fill="#000000" stroke="none">
<path d="M0 1280 l0 -1280 1065 0 1065 0 0 1280 0 1280 -1065 0 -1065 0 0
-1280z m371 1098 l51 -52 -4 -66 c-3 -36 -1 -76 3 -88 6 -16 4 -31 -7 -47 -15
-22 -18 -23 -36 -11 -15 11 -39 13 -87 9 l-66 -5 -55 63 c-52 60 -60 74 -42
74 4 0 19 11 33 25 14 14 51 49 82 79 32 30 57 58 57 63 0 19 23 5 71 -44z
m89 -262 c0 -2 -8 -10 -17 -17 -16 -13 -17 -12 -4 4 13 16 21 21 21 13z m46
-24 c-17 -16 -18 -16 -5 5 7 12 15 20 18 17 3 -2 -3 -12 -13 -22z m-63 -27
c-3 -9 -8 -14 -10 -11 -3 3 -2 9 2 15 9 16 15 13 8 -4z m277 -239 c0 -3 -9
-10 -20 -16 -18 -10 -27 -5 -68 42 -26 29 -57 63 -69 76 -27 27 -29 38 -7 50
12 7 32 -9 90 -69 41 -43 74 -80 74 -83z m-340 84 c-6 -11 -13 -20 -16 -20 -2
0 0 9 6 20 6 11 13 20 16 20 2 0 0 -9 -6 -20z m-147 -67 c4 -3 -3 -17 -15 -30
-12 -13 -18 -23 -13 -23 4 0 14 8 21 18 12 15 13 16 14 0 0 -9 -14 -30 -31
-47 -17 -17 -26 -31 -21 -31 5 0 15 6 21 14 10 12 22 8 73 -26 l60 -40 -20
-21 -20 -20 -46 30 c-25 17 -64 33 -86 37 -41 6 -41 7 -35 39 4 17 23 49 43
70 37 38 44 42 55 30z m318 -192 c-7 -12 -9 -21 -7 -21 3 0 13 14 22 31 12 25
18 29 25 18 12 -19 11 -32 -4 -53 -11 -15 -17 -16 -40 -5 -29 13 -35 37 -15
57 18 18 32 -2 19 -27z m89 10 c-5 -11 -10 -29 -10 -40 0 -14 -6 -21 -20 -21
-25 0 -25 7 0 48 21 35 48 47 30 13z m94 -156 c3 -9 0 -15 -9 -15 -9 0 -12 6
-9 15 4 8 7 15 9 15 2 0 5 -7 9 -15z m41 -15 c10 -11 16 -20 13 -20 -3 0 -13
9 -23 20 -10 11 -16 20 -13 20 3 0 13 -9 23 -20z m246 -96 c10 -53 25 -107 34
-120 18 -28 20 -54 3 -54 -10 0 -10 -2 -1 -8 6 -4 14 -28 18 -54 7 -46 6 -48
-18 -48 -30 0 -37 16 -37 80 0 50 -26 146 -61 228 l-21 47 -16 -35 c-23 -47
-122 -98 -209 -107 -35 -3 -63 -10 -63 -15 0 -5 8 -7 18 -4 9 2 50 8 91 11 42
4 68 11 61 15 -9 6 -7 10 8 14 11 4 37 18 56 31 20 13 36 21 36 17 -1 -16 -18
-32 -50 -46 -19 -8 -28 -15 -20 -16 25 0 80 38 81 57 1 10 0 27 -1 38 -3 28
17 8 25 -26 9 -38 -46 -84 -122 -100 -32 -7 -65 -16 -73 -20 -24 -13 121 -9
160 4 29 10 35 17 36 42 2 48 6 52 14 16 11 -48 6 -56 -53 -81 -40 -18 -61
-21 -101 -15 -36 4 -48 3 -41 -4 6 -6 39 -14 73 -17 73 -8 119 7 134 45 9 22
12 23 15 8 7 -29 -23 -64 -64 -76 l-38 -10 39 5 c35 5 38 4 27 -10 -20 -24
-110 -19 -95 5 3 5 -7 9 -23 9 -27 -1 -27 -1 -9 -15 46 -35 131 -30 145 7 6
18 9 19 14 5 11 -28 -32 -67 -81 -74 -35 -5 -49 -1 -83 23 -23 15 -53 43 -67
62 -41 54 -102 76 -102 37 0 -7 -5 -15 -11 -17 -8 -3 -6 -26 6 -81 l19 -77 12
36 c7 20 18 42 25 48 6 6 10 6 8 1 -28 -74 -44 -105 -55 -105 -18 0 -37 37
-24 45 5 3 10 14 10 23 0 15 -2 15 -10 2 -7 -12 -12 -12 -21 -3 -9 9 -9 16 2
29 10 13 10 16 1 10 -7 -4 -20 -5 -29 -2 -14 6 -13 9 5 27 25 22 30 38 7 19
-12 -10 -18 -10 -30 0 -20 17 -14 33 15 40 13 3 26 12 28 20 4 12 2 13 -9 3
-18 -18 -49 -16 -49 2 0 9 10 20 23 25 20 9 20 9 -8 7 -21 -1 -30 3 -33 16 -2
11 3 17 15 18 15 0 14 2 -4 9 -29 12 -30 30 -1 30 12 0 35 4 52 9 29 9 122 36
227 65 37 10 46 10 46 0 0 -7 -4 -11 -8 -8 -5 3 -25 -4 -46 -14 -21 -11 -69
-29 -108 -42 -70 -22 -115 -48 -65 -37 14 3 54 11 90 17 76 14 109 29 141 67
23 26 109 75 118 67 2 -2 12 -47 22 -100z m93 16 c52 -53 85 -94 81 -101 -6
-8 -9 -8 -15 0 -3 7 -13 9 -21 6 -22 -8 -125 102 -137 148 -6 20 -7 37 -3 37
4 0 47 -40 95 -90z m-341 29 c-6 -6 -26 -12 -44 -13 -19 -2 -45 -8 -57 -15
-21 -11 -21 -10 5 28 16 22 37 41 48 43 26 5 63 -28 48 -43z m160 44 c-7 -2
-19 -2 -25 0 -7 3 -2 5 12 5 14 0 19 -2 13 -5z m-56 -9 c-3 -3 -12 -4 -19 -1
-8 3 -5 6 6 6 11 1 17 -2 13 -5z m-12 -54 c-10 -17 -58 -38 -100 -44 -37 -6
-36 -5 15 14 30 11 59 25 64 30 13 13 29 13 21 0z m690 -187 c114 -149 207
-333 264 -522 17 -58 31 -110 31 -117 0 -14 -124 27 -230 77 -92 43 -241 132
-232 139 4 4 41 21 82 40 80 35 143 70 138 76 -5 5 -91 -22 -164 -51 -34 -14
-73 -25 -86 -25 -15 0 -52 29 -115 92 l-92 92 57 41 c31 23 62 44 68 48 6 3
26 -10 45 -31 19 -20 24 -28 11 -18 -12 11 -24 17 -26 15 -6 -7 184 -179 197
-178 7 0 1 8 -13 17 -39 26 -111 94 -106 100 3 2 22 -10 42 -27 21 -17 40 -28
43 -25 3 2 -6 12 -20 21 -93 64 -196 194 -186 233 6 24 -1 25 -24 4 -18 -16
-17 -18 12 -55 37 -47 30 -51 -11 -6 -16 17 -27 38 -25 46 3 7 0 20 -6 27 -9
11 -7 15 7 20 11 4 24 9 29 12 6 3 1 -5 -10 -18 l-20 -23 22 12 c38 20 60 13
84 -26 l22 -36 23 29 c13 15 38 54 56 85 l33 57 23 -26 c12 -15 47 -59 77 -99z
m-617 71 c-8 -8 -39 -17 -69 -20 l-54 -5 53 19 c29 11 59 25 65 31 9 9 13 9
16 0 2 -6 -3 -17 -11 -25z m13 -54 c-13 -11 -35 -20 -50 -19 -25 1 -25 1 6 12
17 7 35 15 39 20 4 4 12 7 18 7 6 -1 0 -10 -13 -20z m-241 -5 c17 -9 30 -20
30 -25 0 -5 -14 -30 -32 -55 -30 -42 -33 -44 -40 -24 -5 11 -6 25 -3 30 3 5 1
19 -6 31 -6 13 -8 20 -4 16 5 -4 15 -2 24 5 14 11 14 10 2 -6 -8 -9 -12 -20
-9 -23 3 -2 13 7 23 22 9 15 12 23 6 20 -6 -4 -11 -2 -11 4 0 6 -4 8 -10 5 -5
-3 -10 -1 -10 4 0 14 6 14 40 -4z m65 -65 c17 -18 16 -21 -12 -66 -32 -52 -50
-64 -59 -39 -4 9 7 37 26 68 23 38 26 47 11 33 -22 -20 -30 -9 -9 12 16 16 22
15 43 -8z m65 -59 c0 -10 -49 -56 -54 -50 -12 13 -15 48 -5 55 9 5 10 2 6 -12
-7 -19 -7 -19 8 0 8 10 12 23 8 28 -3 6 4 5 16 -1 11 -7 21 -15 21 -20z m140
-1 c-9 -17 -60 -30 -60 -15 0 4 50 29 68 34 1 1 -2 -8 -8 -19z m-17 -36 c12
-12 -22 -34 -53 -34 -28 0 -30 2 -20 20 10 19 58 28 73 14z m408 -41 c13 -16
12 -17 -3 -4 -17 13 -22 21 -14 21 2 0 10 -8 17 -17z m-412 -17 c16 -19 -22
-46 -66 -46 -35 0 -40 9 -23 41 13 23 71 26 89 5z m68 -48 c-3 -7 -5 -2 -5 12
0 14 2 19 5 13 2 -7 2 -19 0 -25z m-100 -16 c19 -12 -1 -33 -41 -42 -38 -8
-43 -2 -26 31 11 19 45 25 67 11z m-19 -58 c30 -8 28 -38 -3 -52 -36 -16 -62
-15 -69 4 -10 26 -7 34 17 44 28 11 27 11 55 4z m27 -75 c9 -14 4 -18 -42 -34
-28 -10 -40 -10 -45 -2 -13 20 -9 26 25 36 44 13 55 13 62 0z m-5 -49 c0 -5
-4 -10 -9 -10 -5 0 -24 -2 -42 -5 l-34 -5 30 14 c36 18 55 20 55 6z m257 -147
c-3 -10 -5 -2 -5 17 0 19 2 27 5 18 2 -10 2 -26 0 -35z m-97 -25 c0 -4 -4 -8
-9 -8 -6 0 -12 4 -15 8 -3 5 1 9 9 9 8 0 15 -4 15 -9z"/>
<path d="M314 2385 c5 -16 -10 -36 -64 -90 -39 -38 -70 -75 -70 -81 0 -7 14
-24 31 -38 27 -23 39 -26 106 -25 l74 1 -5 82 c-6 106 -4 100 -44 138 -27 26
-33 29 -28 13z"/>
<path d="M198 2296 c-29 -27 -43 -47 -39 -55 6 -9 21 2 50 35 34 39 50 65 39
64 -2 -1 -24 -20 -50 -44z"/>
<path d="M1042 1145 c0 -16 2 -22 5 -12 2 9 2 23 0 30 -3 6 -5 -1 -5 -18z"/>
<path d="M736 1445 c-11 -8 -15 -15 -10 -15 6 0 19 7 30 15 10 8 15 14 9 14
-5 0 -19 -6 -29 -14z"/>
<path d="M1442 1084 c42 -43 84 -96 93 -118 9 -21 18 -36 21 -33 9 9 -35 86
-73 128 -20 22 -54 54 -77 71 -27 21 -15 5 36 -48z"/>
</g>
</svg>
